<?xml version="1.0" encoding="utf-8"?>
<!-- Generator: Adobe Illustrator 22.1.0, SVG Export Plug-In . SVG Version: 6.00 Build 0)  -->
<svg version="1.1" id="Layer_1" xmlns="http://www.w3.org/2000/svg" xmlns:xlink="http://www.w3.org/1999/xlink" x="0px" y="0px"
	 viewBox="0 0 24 24" style="enable-background:new 0 0 24 24;" xml:space="preserve">
<g>
	<path d="M5,6.1c1.1,0,2.5-0.2,3.8,0c1.2,0.2,2.4,0.5,3.3,1.4c1.2,1.2,1.5,3.3,0.7,4.8c-0.6,1.3-1.6,2.2-3,2.7
		c-0.4,0.1-0.4,0.3-0.2,0.6c1.1,1.9,2.4,3.7,3.9,5.3c0.7,0.7,1.4,1.4,2.5,1.5c0.2,0,0.2,0.1,0.2,0.3c0,0.2,0.1,0.4-0.1,0.5
		c-0.2,0.1-0.3,0.1-0.5,0.1c-1.9,0.2-3.4-0.4-4.5-1.9c-1.3-1.8-2.5-3.6-3.6-5.5c-0.1-0.3-0.3-0.4-0.6-0.4c-0.5,0-0.9,0-1.4,0
		c-0.3,0-0.3,0.1-0.3,0.3c0,1.7,0,3.3,0,5c0,0.8,0.3,1.4,1.3,1.4c0.3,0,0.6,0.1,0.9,0.1c0.4,0,0.3,0.3,0.3,0.5
		c0,0.3-0.2,0.3-0.4,0.2c-2-0.1-4-0.1-6,0c-0.2,0-0.4,0.1-0.4-0.2c0-0.3-0.1-0.5,0.3-0.6c0.2,0,0.4-0.1,0.6-0.1
		C2.6,22,2.8,21.7,3,20.9C3,20.6,3,20.2,3,19.9c0-3.5,0-7,0-10.6C3,8.9,3,8.4,2.9,8c-0.1-0.5-0.5-0.9-1-1C1.7,7,1.5,6.9,1.2,6.9
		c-0.4,0-0.4-0.3-0.4-0.5c0-0.3,0.2-0.3,0.4-0.3C2.4,6.1,3.6,6.1,5,6.1z M5.1,10.7c0,1,0,2.1,0,3.1c0,0.3,0.1,0.4,0.4,0.4
		c0.9,0,1.8,0.1,2.7-0.1c0.5-0.1,1-0.3,1.4-0.6c1.1-0.8,1.4-2,1.4-3.3c-0.1-1.3-1-2.5-2.3-2.8C7.6,7.2,6.5,7.2,5.4,7.3
		c-0.3,0-0.3,0.1-0.3,0.4C5.1,8.7,5.1,9.7,5.1,10.7z"/>
	<path d="M16.6,5.2c0.1,0.8,0,1.6,0.3,2.4c0.2,0.6,0.9,1.1,1.7,1.1c0.8,0,1.5-0.4,1.8-1c0.2-0.4,0.2-0.8,0.3-1.2
		c0-0.3-0.1-0.4-0.4-0.4c-0.3,0-0.7,0-1,0c-0.3,0-0.4-0.1-0.4-0.4c0-0.7,0-0.7,0.7-0.7c0.7,0,1.4,0,2.1,0c0.2,0,0.4,0,0.4,0.2
		c0,0.8,0,1.6-0.1,2.5c-0.4,1.5-1.6,2.4-3.3,2.4c-1.8,0-3-1.3-3.1-3c-0.1-1.3-0.2-2.7,0.1-4c0.3-1.3,1.5-2.3,2.8-2.3
		c1.1,0,2,0.1,2.8,1c0.1,0.1,0.1,0.1,0.2,0.2c0.1,0.3,0.5,0.5,0.3,0.8c-0.2,0.2-0.6,0.3-0.9,0.4c-0.2,0.1-0.3-0.2-0.3-0.3
		c-0.8-1.2-2.3-1.3-3.2-0.1c-0.3,0.4-0.4,0.8-0.4,1.3C16.6,4.2,16.6,4.7,16.6,5.2z"/>
</g>
</svg>
